<svg xmlns="http://www.w3.org/2000/svg">

  <symbol id="sortable" xmlns="http://www.w3.org/2000/svg" viewBox="0 0 10 18">
    <g fill="none" fill-rule="evenodd">
        <path d="M0 0L24 0 24 24 0 24z" transform="translate(-7 -3)"/>
        <path fill="currentColor" d="M12 5.83L15.17 9l1.41-1.41L12 3 7.41 7.59 8.83 9 12 5.83zm0 12.34L8.83 15l-1.41 1.41L12 21l4.59-4.59L15.17 15 12 18.17z" transform="translate(-7 -3)"/>
    </g>
  </symbol>

  <symbol id="collapse-close" xmlns="http://www.w3.org/2000/svg" viewBox="0 0 10 18">
    <g fill="none" fill-rule="evenodd">
        <path d="M0 0L24 0 24 24 0 24z" transform="translate(-7 -3)"/>
        <path fill="currentColor" d="M12 5.83L15.17 9l1.41-1.41L12 3 7.41 7.59 8.83 9 12 5.83zm0 12.34L8.83 15l-1.41 1.41L12 21l4.59-4.59L15.17 15 12 18.17z" transform="translate(-7 -3)"/>
    </g>
  </symbol>

  <symbol id="collapse-open" xmlns="http://www.w3.org/2000/svg" viewBox="0 0 10 16">
    <g fill="none" fill-rule="evenodd">
        <path d="M0 0L24 0 24 24 0 24z" transform="translate(-7 -4)"/>
        <path fill="currentColor" d="M7.41 18.59L8.83 20 12 16.83 15.17 20l1.41-1.41L12 14l-4.59 4.59zm9.18-13.18L15.17 4 12 7.17 8.83 4 7.41 5.41 12 10l4.59-4.59z" transform="translate(-7 -4)"/>
    </g>
  </symbol>

  <symbol id="dashboard" width="21px" height="17px" viewBox="0 0 21 17" version="1.1" xmlns="http://www.w3.org/2000/svg" xmlns:xlink="http://www.w3.org/1999/xlink">
      <!-- Generator: Sketch 63.1 (92452) - https://sketch.com -->
      <title>home_white_24px@3x</title>
      <desc>Created with Sketch.</desc>
      <g id="Icons" stroke="none" stroke-width="1" fill="none" fill-rule="evenodd">
          <g transform="translate(-360.000000, -51.000000)" id="home_white_24px">
              <g transform="translate(358.000000, 48.000000)">
                  <polygon id="Path" fill="currentColor" fill-rule="nonzero" points="10.4166667 20 10.4166667 14 14.5833333 14 14.5833333 20 19.7916667 20 19.7916667 12 22.9166667 12 12.5 3 2.08333333 12 5.20833333 12 5.20833333 20"></polygon>
                  <polygon id="Path" points="0 0 25 0 25 24 0 24"></polygon>
              </g>
          </g>
      </g>
  </symbol>

  <symbol id="manage-host" width="20px" height="24px" viewBox="0 0 23 22" xmlns="http://www.w3.org/2000/svg" xmlns:xlink="http://www.w3.org/1999/xlink">
    <!-- Generator: Sketch 63.1 (92452) - https://sketch.com -->
    <title>manage-host_white_24px@3x</title>
    <desc>Created with Sketch.</desc>
    <g  fill="none" fill-rule="evenodd" id="Icons" stroke="none" stroke-width="1">
        <g transform="translate(-360.000000, -115.000000)" id="manage-host_white_24px">
            <g transform="translate(358.000000, 111.000000)">
                <path d="M15.4676775,4 C15.7402638,4 15.9659493,4.19048973 16.0083605,4.44055079 L16.0155226,4.52593124 L16.0155226,9.27213994 C16.0155226,9.5338228 15.8170958,9.75048082 15.5566155,9.79119559 L15.4676775,9.79807118 L13.5435389,9.79807118 L13.5435389,11.2262097 L20.8926796,11.2262097 C21.1652659,11.2262097 21.3909513,11.4166994 21.4333626,11.6667604 L21.4405246,11.7521409 L21.4405246,13.6292451 L23.3646633,13.6292451 C23.6372496,13.6292451 23.862935,13.8197348 23.9053463,14.0697958 L23.9125083,14.1551763 L23.9125083,18.901385 C23.9125083,19.1630679 23.7140815,19.3797259 23.4536013,19.4204406 L23.3646633,19.4273162 L18.4206959,19.4273162 C18.1481096,19.4273162 17.9224242,19.2368265 17.8800129,18.9867654 L17.8728509,18.901385 L17.8728509,14.1551763 C17.8728509,13.8934934 18.0712777,13.6768354 18.3317579,13.6361206 L18.4206959,13.6292451 L20.3448346,13.6292451 L20.3448346,12.2737963 L13.5435389,12.2737963 L13.5435389,13.6292451 L15.4676775,13.6292451 C15.7402638,13.6292451 15.9659493,13.8197348 16.0083605,14.0697958 L16.0155226,14.1551763 L16.0155226,18.901385 C16.0155226,19.1630679 15.8170958,19.3797259 15.5566155,19.4204406 L15.4676775,19.4273162 L10.5237101,19.4273162 C10.2511238,19.4273162 10.0254384,19.2368265 9.98302715,18.9867654 L9.97586508,18.901385 L9.97586508,14.1551763 C9.97586508,13.8934934 10.1742919,13.6768354 10.4347722,13.6361206 L10.5237101,13.6292451 L12.4478488,13.6292451 L12.4478488,12.2737963 L5.64655308,12.2737963 L5.64655308,13.6292451 L7.57514577,13.6292451 C7.84773209,13.6292451 8.07341752,13.8197348 8.11582874,14.0697958 L8.12299081,14.1551763 L8.12299081,18.901385 C8.12299081,19.1630679 7.92456401,19.3797259 7.66408374,19.4204406 L7.57514577,19.4273162 L2.63117837,19.4273162 C2.35859206,19.4273162 2.13290663,19.2368265 2.09049541,18.9867654 L2.08333333,18.901385 L2.08333333,14.1551763 C2.08333333,13.8934934 2.28176013,13.6768354 2.54224041,13.6361206 L2.63117837,13.6292451 L4.55531704,13.6292451 L4.55531704,11.7521409 C4.55531704,11.490458 4.75374384,11.2738 5.01422411,11.2330852 L5.10316207,11.2262097 L12.4523028,11.2262097 L12.4523028,9.79807118 L10.5281641,9.79807118 C10.2555778,9.79807118 10.0298924,9.60758145 9.98748118,9.35752039 L9.98031911,9.27213994 L9.98031911,4.52593124 C9.98031911,4.26424838 10.1787459,4.04759036 10.4359792,4.00687559 L10.5237101,4 L15.4676775,4 Z" id="Combined-Shape" fill="currentColor" fill-rule="nonzero"></path>
                <polygon id="Path" points="0 0 25 0 25 24 0 24"></polygon>
            </g>
        </g>
    </g>
  </symbol>

  <symbol id="deploy-hp" width="20px" height="20px" viewBox="0 0 23 22" version="1.1" xmlns="http://www.w3.org/2000/svg" xmlns:xlink="http://www.w3.org/1999/xlink">
      <!-- Generator: Sketch 63.1 (92452) - https://sketch.com -->
      <title>deploy-hp_white_24px@3x</title>
      <desc>Created with Sketch.</desc>
      <g id="Icons" stroke="none" stroke-width="1" fill="none" fill-rule="evenodd">
          <g transform="translate(-359.000000, -173.000000)" id="deploy-hp_white_24px">
              <g transform="translate(358.000000, 172.000000)">
                  <g id="Group" transform="translate(1.041667, 1.000000)" fill="currentColor" fill-rule="nonzero">
                      <path d="M5.44804866,13.8339344 C4.82747494,14.4308487 4.39857846,16.4404858 4.21692325,17.4494517 C4.16443576,17.7409368 4.42794535,17.9944001 4.73098372,17.9439136 C5.77994117,17.769184 7.86923246,17.3566392 8.48980618,16.7597249 C9.32974594,15.951763 9.32974594,14.6418963 8.48980618,13.8339344 C7.64981981,13.0259725 6.28798842,13.0259725 5.44804866,13.8339344 Z" id="Path"></path>
                      <path d="M16.7441508,0.525892663 C16.3585682,0.638174574 15.9780279,0.770500695 15.602887,0.921368784 C14.1805017,1.49496797 12.9063969,2.3174673 11.8156011,3.3666336 L9.43178051,5.65957102 C8.7571783,5.01068801 7.87276132,4.68624651 6.9886567,4.68624651 C6.10455208,4.68624651 5.22009048,5.01068801 4.54553289,5.65957102 L0.196182605,9.8430594 C-0.0653942018,10.0946636 -0.0653942018,10.501943 0.196182605,10.7535472 C0.457447055,11.004851 0.881181849,11.0051514 1.14275866,10.7535472 L2.99173453,8.97506357 L5.76966059,9.18207261 C5.50839614,9.43337636 5.50808378,9.84095626 5.76966059,10.0925605 L12.3775316,16.4484205 C12.6391084,16.7000247 13.0628432,16.6997243 13.3241077,16.4484205 L13.5393217,19.1204382 L11.6903459,20.8989218 C11.4287691,21.150526 11.4290814,21.5581059 11.6903459,21.8094097 C11.9519227,22.0610139 12.3753451,22.0610139 12.6369219,21.8094097 L16.986183,17.6259642 C18.3356997,16.3278978 18.3353874,14.2237279 16.986183,12.9259619 L19.3700035,10.6330245 C20.4607993,9.58381523 21.3158547,8.35828564 21.9122338,6.99012883 C22.0690817,6.62929014 22.2066081,6.26325797 22.3233851,5.89237571 C20.9520925,5.63257357 19.6845918,4.98643752 18.6853166,4.02525972 C17.6859968,3.06408193 17.0142058,1.84490467 16.7441508,0.525892663 Z M14.571082,15.2489871 L7.0166796,7.9825962 L7.96325565,7.07210836 L15.5176581,14.3384992 L14.571082,15.2489871 Z M16.8763225,9.05820197 C15.9322453,9.96628622 14.3965636,9.96594285 13.4528434,9.05820197 C12.5091232,8.15041817 12.5087662,6.67328439 13.4528434,5.76524306 C14.3966083,4.85750218 15.9326023,4.85750218 16.8763225,5.76524306 C17.8200873,6.67298394 17.8200873,8.15041817 16.8763225,9.05820197 Z" id="Shape"></path>
                      <path d="M14.0800272,8.50859036 C14.7150348,9.11938831 15.748551,9.11938831 16.3835586,8.50859036 C17.0185663,7.89779241 17.0185663,6.90367902 16.3835586,6.29288107 C15.748551,5.68208312 14.7150348,5.68208312 14.0800272,6.29288107 C13.4450196,6.90367902 13.4450196,7.89779241 14.0800272,8.50859036 Z" id="Path"></path>
                      <path d="M22.6634372,0.196871692 C22.530918,0.0694047858 22.3508242,-0.00149980131 22.1634615,1.74160203e-14 L19.9693461,0.0173692449 C19.2556342,0.0230165129 18.5498902,0.0870637031 17.8559351,0.208748883 C18.076614,1.34748014 18.6504445,2.40132309 19.5110738,3.22909605 C20.3716565,4.05686901 21.4672697,4.60886704 22.6511358,4.82113261 C22.7776442,4.1536345 22.8442299,3.47479703 22.850101,2.78829541 L22.8681573,0.677830683 C22.8696714,0.497566303 22.7959098,0.324338598 22.6634372,0.196871692 Z" id="Path"></path>
                  </g>
                  <polygon id="Path" points="0 0 25 0 25 24 0 24"></polygon>
              </g>
          </g>
      </g>
  </symbol>

  <symbol id="deployment-log" width="20px" height="16px" viewBox="0 0 20 16" version="1.1" xmlns="http://www.w3.org/2000/svg" xmlns:xlink="http://www.w3.org/1999/xlink">
      <!-- Generator: Sketch 63.1 (92452) - https://sketch.com -->
      <title>deployment_white_24px@3x</title>
      <desc>Created with Sketch.</desc>
      <g id="Icons" stroke="none" stroke-width="1" fill="none" fill-rule="evenodd">
          <g transform="translate(-360.000000, -292.000000)" id="deployment_white_24px">
              <g transform="translate(358.000000, 288.000000)">
                  <polygon id="Path" points="0 0 25 0 25 24 0 24"></polygon>
                  <path d="M2.08333333,17 L4.16666667,17 L4.16666667,17.5 L3.125,17.5 L3.125,18.5 L4.16666667,18.5 L4.16666667,19 L2.08333333,19 L2.08333333,20 L5.20833333,20 L5.20833333,16 L2.08333333,16 L2.08333333,17 Z M3.125,8 L4.16666667,8 L4.16666667,4 L2.08333333,4 L2.08333333,5 L3.125,5 L3.125,8 Z M2.08333333,11 L3.95833333,11 L2.08333333,13.1 L2.08333333,14 L5.20833333,14 L5.20833333,13 L3.33333333,13 L5.20833333,10.9 L5.20833333,10 L2.08333333,10 L2.08333333,11 Z M7.29166667,5 L7.29166667,7 L21.875,7 L21.875,5 L7.29166667,5 Z M7.29166667,19 L21.875,19 L21.875,17 L7.29166667,17 L7.29166667,19 Z M7.29166667,13 L21.875,13 L21.875,11 L7.29166667,11 L7.29166667,13 Z" id="Shape" fill="currentColor" fill-rule="nonzero"></path>
              </g>
          </g>
      </g>
  </symbol>

  <symbol id="manage-hp" width="20px" height="20px" viewBox="0 0 24 23" version="1.1" xmlns="http://www.w3.org/2000/svg" xmlns:xlink="http://www.w3.org/1999/xlink">
      <!-- Generator: Sketch 63.1 (92452) - https://sketch.com -->
      <title>manage-hp_white_24px@3x</title>
      <desc>Created with Sketch.</desc>
      <g id="Icons" stroke="none" stroke-width="1" fill="none" fill-rule="evenodd">
          <g transform="translate(-359.000000, -236.000000)" id="manage-hp_white_24px">
              <g transform="translate(358.000000, 235.000000)">
                  <polygon id="Path" fill="currentColor" fill-rule="nonzero" points="7.82486979 13.9817054 7.82486979 10.1004554 4.45572917 8.15983038 1.04166667 10.1004554 1.04166667 13.9817054 4.45572917 15.9223304"></polygon>
                  <polygon id="Path" fill="currentColor" fill-rule="nonzero" points="9.17611979 10.1004554 9.17611979 13.9817054 12.5452604 15.9223304 15.914401 13.9817054 15.914401 10.1004554 12.5452604 8.15983038"></polygon>
                  <polygon id="Path" fill="currentColor" fill-rule="nonzero" points="17.265651 10.1004554 17.265651 13.9817054 20.6347917 15.9223304 24.0488542 13.9817054 24.0488542 10.1004554 20.6347917 8.15983038"></polygon>
                  <polygon id="Path" fill="currentColor" fill-rule="nonzero" points="19.953776 7.03817383 19.953776 2.940625 16.5846354 1 13.2154948 2.940625 13.2154948 7.03817383 16.5846354 8.97863038"></polygon>
                  <polygon id="Path" fill="currentColor" fill-rule="nonzero" points="5.12955729 17.0439869 5.12955729 21.1415358 8.49869792 23.0821608 11.8678385 21.1415358 11.8678385 17.0439869 8.49869792 15.1035304"></polygon>
                  <polygon id="Path" points="0 0 25 0 25 24 0 24"></polygon>
              </g>
          </g>
      </g>
  </symbol>

  <symbol id="attack-analysis" xmlns="http://www.w3.org/2000/svg" viewBox="0 0 20 20">
    <!-- Generator: Sketch 63.1 (92452) - https://sketch.com -->
    <title>attack-analysis_white_24px@3x</title>
    <desc>Created with Sketch.</desc>
    <g id="Icons" stroke="none" stroke-width="1" fill="none" fill-rule="evenodd">
        <g transform="translate(-359.000000, -347.000000)" id="attack-analysis_white_24px">
            <g transform="translate(358.000000, 346.000000)">
                <g id="Group-2" transform="translate(1.041667, 1.000000)" fill="currentColor" fill-rule="nonzero">
                    <path d="M20.9025065,5.32907052e-15 L2.01416016,5.32907052e-15 C0.903574626,5.32907052e-15 0,0.886707899 0,1.9765625 L0,19.1067708 C0,20.1966254 0.903574626,21.0833333 2.01416016,21.0833333 L20.9025065,21.0833333 C22.013092,21.0833333 22.9166667,20.1966254 22.9166667,19.1067708 L22.9166667,1.9765625 C22.9166667,0.886707899 22.013092,5.32907052e-15 20.9025065,5.32907052e-15 Z M3.35693359,18.4479167 C2.98609735,18.4479167 2.68554688,18.1529765 2.68554688,17.7890625 C2.68554688,17.4251485 2.98609735,17.1302083 3.35693359,17.1302083 C3.72776984,17.1302083 4.02832031,17.4251485 4.02832031,17.7890625 C4.02832031,18.1529765 3.72776984,18.4479167 3.35693359,18.4479167 Z M6.04248047,18.4479167 C5.67164422,18.4479167 5.37109375,18.1529765 5.37109375,17.7890625 C5.37109375,17.4251485 5.67164422,17.1302083 6.04248047,17.1302083 C6.41331672,17.1302083 6.71386719,17.4251485 6.71386719,17.7890625 C6.71386719,18.1529765 6.41331672,18.4479167 6.04248047,18.4479167 Z M8.72802734,18.4479167 C8.3571911,18.4479167 8.05664062,18.1529765 8.05664062,17.7890625 C8.05664062,17.4251485 8.3571911,17.1302083 8.72802734,17.1302083 C9.09886359,17.1302083 9.39941406,17.4251485 9.39941406,17.7890625 C9.39941406,18.1529765 9.09886359,18.4479167 8.72802734,18.4479167 Z M19.5597331,18.4479167 L15.0838216,18.4479167 C14.7129854,18.4479167 14.4124349,18.1529765 14.4124349,17.7890625 C14.4124349,17.4251485 14.7129854,17.1302083 15.0838216,17.1302083 L19.5597331,17.1302083 C19.9305693,17.1302083 20.2311198,17.4251485 20.2311198,17.7890625 C20.2311198,18.1529765 19.9305693,18.4479167 19.5597331,18.4479167 Z M20.2311198,15.1536458 C20.2311198,15.5175598 19.9305693,15.8125 19.5597331,15.8125 L3.35693359,15.8125 C2.98609735,15.8125 2.68554688,15.5175598 2.68554688,15.1536458 L2.68554688,3.29427083 C2.68554688,2.93035686 2.98609735,2.63541667 3.35693359,2.63541667 L19.5597331,2.63541667 C19.9305693,2.63541667 20.2311198,2.93035686 20.2311198,3.29427083 L20.2311198,15.1536458 Z" id="Shape"></path>
                    <path d="M4.39453125,8.90595716 L6.55559324,8.90595716 L8.07087985,7.41911901 C8.32004777,7.17443912 8.7243015,7.17443912 8.97346942,7.41911901 L11.9264166,10.3167814 L13.3900079,8.88067356 C13.5096883,8.76306411 13.672088,8.69716365 13.8413027,8.69716365 L16.6072493,8.69716365 C16.9598078,8.69716365 17.2455447,8.97756682 17.2455447,9.32354418 C17.2455447,9.66952153 16.9598078,9.9499247 16.6072493,9.9499247 L14.1057631,9.9499247 L12.3777114,11.6455564 C12.2532106,11.7678963 12.0898136,11.8290663 11.9264166,11.8290663 C11.7630196,11.8290663 11.5996227,11.7678963 11.4751218,11.6455564 L8.52217464,8.74789396 L7.27134844,9.9752083 C7.15166805,10.0928178 6.98926839,10.1587182 6.82005365,10.1587182 L4.39453125,10.1587182 L4.39453125,14.3345884 L18.5221354,14.3345884 L18.5221354,4.3125 L4.39453125,4.3125 L4.39453125,8.90595716 Z" id="Path"></path>
                </g>
                <polygon id="Path" points="0 0 25 0 25 24 0 24"></polygon>
            </g>
        </g>
    </g>
  </symbol>

  <symbol id="settings" width="21px" height="20px" viewBox="0 0 21 20" version="1.1" xmlns="http://www.w3.org/2000/svg" xmlns:xlink="http://www.w3.org/1999/xlink">
      <!-- Generator: Sketch 63.1 (92452) - https://sketch.com -->
      <title>settings_white_24px@3x</title>
      <desc>Created with Sketch.</desc>
      <g id="Icons" stroke="none" stroke-width="1" fill="none" fill-rule="evenodd">
          <g transform="translate(-360.000000, -586.000000)" id="settings_white_24px">
              <g transform="translate(358.000000, 584.000000)">
                  <polygon id="Path" points="0 0 25 0 25 24 0 24"></polygon>
                  <path d="M19.9375,12.936 C19.975,12.636 20,12.324 20,12 C20,11.676 19.975,11.364 19.925,11.064 L22.0375,9.48 C22.225,9.336 22.275,9.072 22.1625,8.868 L20.1625,5.544 C20.0375,5.328 19.775,5.256 19.55,5.328 L17.0625,6.288 C16.5375,5.904 15.9875,5.592 15.375,5.352 L15,2.808 C14.9625,2.568 14.75,2.4 14.5,2.4 L10.5,2.4 C10.25,2.4 10.05,2.568 10.0125,2.808 L9.6375,5.352 C9.025,5.592 8.4625,5.916 7.95,6.288 L5.4625,5.328 C5.2375,5.244 4.975,5.328 4.85,5.544 L2.85,8.868 C2.725,9.084 2.775,9.336 2.975,9.48 L5.0875,11.064 C5.0375,11.364 5,11.688 5,12 C5,12.312 5.025,12.636 5.075,12.936 L2.9625,14.52 C2.775,14.664 2.725,14.928 2.8375,15.132 L4.8375,18.456 C4.9625,18.672 5.225,18.744 5.45,18.672 L7.9375,17.712 C8.4625,18.096 9.0125,18.408 9.625,18.648 L10,21.192 C10.05,21.432 10.25,21.6 10.5,21.6 L14.5,21.6 C14.75,21.6 14.9625,21.432 14.9875,21.192 L15.3625,18.648 C15.975,18.408 16.5375,18.084 17.05,17.712 L19.5375,18.672 C19.7625,18.756 20.025,18.672 20.15,18.456 L22.15,15.132 C22.275,14.916 22.225,14.664 22.025,14.52 L19.9375,12.936 L19.9375,12.936 Z M12.5,15.6 C10.4375,15.6 8.75,13.98 8.75,12 C8.75,10.02 10.4375,8.4 12.5,8.4 C14.5625,8.4 16.25,10.02 16.25,12 C16.25,13.98 14.5625,15.6 12.5,15.6 Z" id="Shape" fill="currentColor" fill-rule="nonzero"></path>
              </g>
          </g>
      </g>
  </symbol>

  <symbol id="user-management" xmlns="http://www.w3.org/2000/svg" viewBox="0 0 20 20">
    <g fill="none" fill-rule="evenodd">
      <path d="M0 0L24 0 24 24 0 24z" transform="translate(-2 -2)"/>
      <path fill="currentColor" d="M5.85 17.11C6.53 16.57 8.12 16 9.51 16c.07 0 .15.009.23.009.24-.639.67-1.289 1.3-1.859-.56-.101-1.09-.16-1.53-.16-1.3 0-3.39.45-4.73 1.43-.5-1.04-.78-2.2-.78-3.43 0-4.41 3.59-8 8-8 4.411 0 8 3.59 8 8 0 1.2-.27 2.34-.75 3.37-1-.59-2.36-.87-3.24-.87-1.519 0-4.5.809-4.5 2.7v2.78c-2.27-.131-4.29-1.211-5.66-2.86M12 2C6.48 2 2 6.48 2 12s4.48 10 10 10 10-4.48 10-10S17.52 2 12 2m4.01 10.99c1.111 0 2-.89 2-2 0-1.11-.889-2-2-2-1.11 0-2.01.89-2 2 0 1.11.89 2 2 2m-6.5-2c-.55 0-1-.45-1-1s.45-1 1-1 1 .45 1 1-.45 1-1 1m3-1c0-1.65-1.35-3-3-3s-3 1.35-3 3 1.35 3 3 3 3-1.35 3-3" transform="translate(-2 -2)"/>
    </g>
  </symbol>

  <symbol id="tag-management" xmlns="http://www.w3.org/2000/svg" viewBox="0 0 19 14">
    <g fill="none" fill-rule="evenodd">
        <path d="M0 0L24 0 24 24 0 24z" transform="translate(-3 -5)"/>
        <path fill="currentColor" d="M17.63 5.84C17.27 5.33 16.67 5 16 5L5 5.01C3.9 5.01 3 5.9 3 7v10c0 1.1.9 1.99 2 1.99L16 19c.67 0 1.27-.33 1.63-.84L22 12l-4.37-6.16zM16 17H5V7h11l3.55 5L16 17z" transform="translate(-3 -5)"/>
    </g>
  </symbol>

  <symbol id="key-management" xmlns="http://www.w3.org/2000/svg" width="30px" viewBox="0 0 39 22">
    <g fill="none" fill-rule="evenodd">
        <path d="M0 0L24 0 24 24 0 24z" transform="translate(-1 -6)"/>
        <path fill="currentColor" d="M12.65 10C11.83 7.67 9.61 6 7 6c-3.31 0-6 2.69-6 6s2.69 6 6 6c2.61 0 4.83-1.67 5.65-4H17v4h4v-4h2v-4H12.65zM7 14c-1.1 0-2-.9-2-2s.9-2 2-2 2 .9 2 2-.9 2-2 2z" transform="translate(-1 -6)"/>
    </g>
  </symbol>

  <symbol id="system-health" width="23px" height="18px" viewBox="0 0 23 18" version="1.1" xmlns="http://www.w3.org/2000/svg" xmlns:xlink="http://www.w3.org/1999/xlink">
      <!-- Generator: Sketch 63.1 (92452) - https://sketch.com -->
      <title>system-health_white_24px@3x</title>
      <desc>Created with Sketch.</desc>
      <g id="Icons" stroke="none" stroke-width="1" fill="none" fill-rule="evenodd">
          <g transform="translate(-359.000000, -532.000000)" id="system-health_white_24px">
              <g transform="translate(358.000000, 529.000000)">
                  <polygon id="Path" points="0 0 25 0 25 24 0 24"></polygon>
                  <g id="Group-4" transform="translate(1.041667, 3.000000)" fill-rule="nonzero">
                      <path d="M11.4583333,10.2230392 C11.0544759,10.2230392 10.7259115,10.5363995 10.7259115,10.9215686 C10.7259115,11.3067377 11.0544759,11.620098 11.4583333,11.620098 C11.8621908,11.620098 12.1907552,11.3067377 12.1907552,10.9215686 C12.1907552,10.5363995 11.8621908,10.2230392 11.4583333,10.2230392 Z" id="Path" fill="var(--darkColor)"></path>
                      <path d="M19.5606283,3.20073938 C17.3963908,1.13673632 14.5189616,0 11.4583333,0 C8.39770508,0 5.52027588,1.13673632 3.35603841,3.20073938 C1.19189046,5.26482782 0,8.00910539 0,10.9281046 C0,13.1419422 0.691125488,15.2745447 1.99862874,17.0954828 L2.19861247,17.3739788 L20.7180542,17.3739788 L20.9180379,17.0954828 C22.2255412,15.2745874 22.9166667,13.1419422 22.9166667,10.9281046 C22.9166667,8.00910539 21.7247762,5.26482782 19.5606283,3.20073938 Z" id="Path" fill="currentColor"></path>
                      <polygon id="Path" fill="var(--darkColor)" points="15.2633057 3.36205699 16.4261475 4.00237561 15.083374 6.22052471 13.9205322 5.58020609"></polygon>
                      <polygon id="Path" fill="var(--darkColor)" points="10.7869466 2.56127451 12.1297201 2.56127451 12.1297201 5.12254902 10.7869466 5.12254902"></polygon>
                      <polygon id="Path" fill="var(--darkColor)" points="2.68554688 10.2877859 5.37109375 10.2877859 5.37109375 11.5684232 2.68554688 11.5684232"></polygon>
                      <polygon id="Path" fill="var(--darkColor)" points="4.19656982 15.6660355 3.52518311 14.5570037 5.85095622 13.2763664 6.52234294 14.3853983"></polygon>
                      <polygon id="Path" fill="var(--darkColor)" points="5.85095622 8.57984273 3.52518311 7.29920547 4.19656982 6.19017361 6.52234294 7.47081087"></polygon>
                      <polygon id="Path" fill="var(--darkColor)" points="7.83329264 6.22052471 6.49051921 4.00237561 7.653361 3.36205699 8.99613444 5.58020609"></polygon>
                      <path d="M11.4583333,12.8490605 C10.3477254,12.8490605 9.44417318,11.9873196 9.44417318,10.9281046 C9.44417318,9.8688895 10.3477254,9.00714869 11.4583333,9.00714869 C11.9570841,9.00714869 12.4137166,9.18131536 12.7658813,9.46873305 L18.7200968,6.19013092 L19.3914836,7.29916279 L13.438208,10.5772527 C13.460319,10.6911013 13.4724935,10.8082369 13.4724935,10.9280619 C13.4724935,11.9873196 12.5689412,12.8490605 11.4583333,12.8490605 Z" id="Path" fill="var(--darkColor)"></path>
                      <polygon id="Path" fill="var(--darkColor)" points="18.7200968 15.6660355 16.3943237 14.3853983 17.0657104 13.2763664 19.3914836 14.5570037"></polygon>
                      <polygon id="Path" fill="var(--darkColor)" points="20.2311198 11.5684232 17.5455729 11.5684232 17.5455729 10.2877859 20.2311198 10.2877859"></polygon>
                  </g>
              </g>
          </g>
      </g>
  </symbol>

  <symbol id="alert" xmlns="http://www.w3.org/2000/svg" viewBox="0 0 20 20">
    <g fill="none" fill-rule="evenodd">
        <path d="M-2-2h24v24H-2z"/>
        <path fill="currentColor" d="M10 0C4.48 0 0 4.48 0 10s4.48 10 10 10 10-4.48 10-10S15.52 0 10 0zm1 15H9v-2h2v2zm0-4H9V5h2v6z"/>
    </g>
  </symbol>
  <symbol id="edit" viewBox="0 0 18 18">
    <g fill="none" fill-rule="evenodd">
        <path fill="currentColor" d="M0 14.25V18h3.75L14.81 6.94l-3.75-3.75L0 14.25zM17.71 4.04a.996.996 0 0 0 0-1.41L15.37.29a.996.996 0 0 0-1.41 0l-1.83 1.83 3.75 3.75 1.83-1.83z"/>
        <path d="M-3-3h24v24H-3z"/>
    </g>
  </symbol>
  <symbol id="edit-2" viewBox="0 0 24 24">
    <g fill="none" fill-rule="evenodd">
        <path fill="currentColor" d="M17.75 7L14 3.25l-10 10V17h3.75l10-10zm2.96-2.96a.996.996 0 0 0 0-1.41L18.37.29a.996.996 0 0 0-1.41 0L15 2.25 18.75 6l1.96-1.96z"/>
        <path d="M0 0h24v24H0z"/>
        <path fill="currentColor" d="M0 20h24v4H0z"/>
    </g>
  </symbol>
  <symbol id="check" viewBox="0 0 18 14">
    <g fill="none" fill-rule="evenodd">
        <path d="M-3-5h24v24H-3z"/>
        <path fill="currentColor" d="M6 11.17L1.83 7 .41 8.41 6 14 18 2 16.59.59z"/>
    </g>
  </symbol>
  <symbol id="flag" viewBox="0 0 15 17">
    <g fill="none" fill-rule="evenodd">
        <path d="M-5-4h24v24H-5z"/>
        <path fill="currentColor" fill-rule="nonzero" d="M9.4 2L9 0H0v17h2v-7h5.6l.4 2h7V2z"/>
    </g>
  </symbol>
  <symbol id="download" viewBox="0 0 24 16">
    <g fill="none" fill-rule="evenodd">
        <path d="M0-4h24v24H0z"/>
        <path fill="currentColor" d="M19.35 6.04A7.49 7.49 0 0 0 12 0C9.11 0 6.6 1.64 5.35 4.04A5.994 5.994 0 0 0 0 10c0 3.31 2.69 6 6 6h13c2.76 0 5-2.24 5-5 0-2.64-2.05-4.78-4.65-4.96zM17 9l-5 5-5-5h3V5h4v4h3z"/>
    </g>
  </symbol>

  <symbol id="download-2" viewBox="0 0 18 18">
    <g fill="none" fill-rule="evenodd">
        <path d="M-3-3h24v24H-3z"/>
        <path fill="currentColor" fill-rule="nonzero" d="M17.54 2.23L16.15.55C15.88.21 15.47 0 15 0H3c-.47 0-.88.21-1.16.55L.46 2.23C.17 2.57 0 3.02 0 3.5V16c0 1.1.9 2 2 2h14c1.1 0 2-.9 2-2V3.5c0-.48-.17-.93-.46-1.27zM3.24 2h11.52l.81.97H2.44l.8-.97zM2 16V5h14v11H2zm8.45-9h-2.9v3H5l4 4 4-4h-2.55V7z"/>
    </g>
  </symbol>

  <symbol id="chevron-left" viewBox="0 0 8 13">
    <g fill="none" fill-rule="evenodd">
        <path fill="currentColor" d="M7.41 11.09L2.83 6.5l4.58-4.59L6 .5l-6 6 6 6z"/>
        <path d="M-8-5.5h24v24H-8z"/>
    </g>
  </symbol>
  <symbol id="chevron-right" viewBox="0 0 8 12">
    <g fill="none" fill-rule="evenodd">
        <path d="M-8-6h24v24H-8z"/>
        <path fill="currentColor" fill-rule="nonzero" d="M.59 10.59L5.17 6 .59 1.41 2 0l6 6-6 6z"/>
    </g>
  </symbol>

  <symbol id="sort_asc" viewBox="0 0 18 10">
    <g fill="none" fill-rule="evenodd">
        <path fill="currentColor" d="M16.59 8.59L12 13.17 7.41 8.59 6 10 12 16 18 10z" transform="translate(-6 -8)"/>
        <path d="M0 0L24 0 24 24 0 24z" transform="translate(-6 -8)"/>
    </g>
  </symbol>

  <symbol id="sort_desc" viewBox="0 0 18 10">
    <g fill="none" fill-rule="evenodd">
        <path fill="currentColor" d="M6 0L0 6l1.41 1.41L6 2.83l4.59 4.58L12 6z"/>
        <path d="M-6-8h24v24H-6z"/>
    </g>
  </symbol>

  <symbol id="chevron-down" viewBox="0 0 12 8">
    <g fill="none" fill-rule="evenodd">
        <path fill="currentColor" d="M16.59 8.59L12 13.17 7.41 8.59 6 10 12 16 18 10z" transform="translate(-6 -8)"/>
        <path d="M0 0L24 0 24 24 0 24z" transform="translate(-6 -8)"/>
    </g>
  </symbol>

  <symbol id="chevron-up" viewBox="0 0 12 8">
    <g fill="none" fill-rule="evenodd">
        <path fill="currentColor" d="M6 0L0 6l1.41 1.41L6 2.83l4.59 4.58L12 6z"/>
        <path d="M-6-8h24v24H-6z"/>
    </g>
  </symbol>

  <symbol id="search" viewBox="0 0 18 18">
    <g fill="none" fill-rule="evenodd">
        <path d="M-3-3h24v24H-3z"/>
        <path fill="currentColor" fill-rule="nonzero" d="M12.5 11h-.79l-.28-.27A6.471 6.471 0 0 0 13 6.5 6.5 6.5 0 1 0 6.5 13c1.61 0 3.09-.59 4.23-1.57l.27.28v.79l5 4.99L17.49 16l-4.99-5zm-6 0C4.01 11 2 8.99 2 6.5S4.01 2 6.5 2 11 4.01 11 6.5 8.99 11 6.5 11z"/>
    </g>
  </symbol>
  <symbol id="close" viewBox="0 0 14 14">
    <g fill="none" fill-rule="evenodd">
        <path fill="currentColor" d="M14 1.41L12.59 0 7 5.59 1.41 0 0 1.41 5.59 7 0 12.59 1.41 14 7 8.41 12.59 14 14 12.59 8.41 7z"/>
        <path d="M-5-5h24v24H-5z"/>
    </g>
  </symbol>
  <symbol id="menu" viewBox="0 0 18 12">
    <g fill="none" fill-rule="evenodd">
        <path d="M-3-6h24v24H-3z"/>
        <path fill="currentColor" fill-rule="nonzero" d="M0 12h18v-2H0v2zm0-5h18V5H0v2zm0-7v2h18V0H0z"/>
    </g>
  </symbol>
  <svg id="sort" viewBox="0 0 7 10">
    <g fill-rule="evenodd">
      <path d="M0 6l3.5 3.5L7 6zM7 3.5L3.5 0 0 3.5z"/>
    </g>
  </svg>
  <symbol id="sort-asc" viewBox="0 0 10 5">
    <g fill="none" fill-rule="evenodd">
        <path fill="currentColor" d="M0 5l5-5 5 5z"/>
        <path d="M-7-9h24v24H-7z"/>
    </g>
  </symbol>
  <symbol id="sort-desc" viewBox="0 0 10 5">
    <g fill="none" fill-rule="evenodd">
        <path fill="currentColor" d="M0 0l5 5 5-5z"/>
        <path d="M-7-10h24v24H-7z"/>
    </g>
  </symbol>
  <symbol id="add" viewBox="0 0 14 14">
    <g fill="none" fill-rule="evenodd">
        <path fill="currentColor" d="M14 8H8v6H6V8H0V6h6V0h2v6h6z"/>
        <path d="M-5-5h24v24H-5z"/>
    </g>
  </symbol>
  <symbol id="help" viewBox="0 0 20 20">
    <g fill="none" fill-rule="evenodd">
        <path d="M-2-2h24v24H-2z"/>
        <path fill="currentColor" d="M9 16h2v-2H9v2zm1-16C4.48 0 0 4.48 0 10s4.48 10 10 10 10-4.48 10-10S15.52 0 10 0zm0 18c-4.41 0-8-3.59-8-8s3.59-8 8-8 8 3.59 8 8-3.59 8-8 8zm0-14C7.79 4 6 5.79 6 8h2c0-1.1.9-2 2-2s2 .9 2 2c0 2-3 1.75-3 5h2c0-2.25 3-2.5 3-5 0-2.21-1.79-4-4-4z"/>
    </g>
  </symbol>
  <symbol id="close-circle" viewBox="0 0 20 20">
    <g fill="none" fill-rule="evenodd">
        <path fill="currentColor" d="M10 0C4.47 0 0 4.47 0 10s4.47 10 10 10 10-4.47 10-10S15.53 0 10 0zm5 13.59L13.59 15 10 11.41 6.41 15 5 13.59 8.59 10 5 6.41 6.41 5 10 8.59 13.59 5 15 6.41 11.41 10 15 13.59z"/>
        <path d="M-2-2h24v24H-2z"/>
    </g>
  </symbol>
  <symbol id="trash" viewBox="0 0 14 18">
    <g fill="none" fill-rule="evenodd">
        <path d="M-5-3h24v24H-5z"/>
        <path fill="currentColor" fill-rule="nonzero" d="M9.12 7.47L7 9.59 4.87 7.47 3.46 8.88 5.59 11l-2.12 2.12 1.41 1.41L7 12.41l2.12 2.12 1.41-1.41L8.41 11l2.12-2.12-1.41-1.41zM10.5 1l-1-1h-5l-1 1H0v2h14V1h-3.5zM1 16c0 1.1.9 2 2 2h8c1.1 0 2-.9 2-2V4H1v12zM3 6h8v10H3V6z"/>
    </g>
  </symbol>

  <symbol id="empty-trash" viewBox="0 0 20 16">
    <g fill="none" fill-rule="evenodd">
        <path d="M-2-4h24v24H-2z"/>
        <path fill="currentColor" fill-rule="nonzero" d="M13 12h4v2h-4v-2zm0-8h7v2h-7V4zm0 4h6v2h-6V8zM1 14c0 1.1.9 2 2 2h6c1.1 0 2-.9 2-2V4H1v10zm2-8h6v8H3V6zm5-6H4L3 1H0v2h12V1H9L8 0z"/>
    </g>
  </symbol>

  <symbol id="refresh" viewBox="0 0 16 16">
    <g fill="none" fill-rule="evenodd">
        <path fill="currentColor" d="M13.65 2.35A7.958 7.958 0 0 0 8 0C3.58 0 .01 3.58.01 8S3.58 16 8 16c3.73 0 6.84-2.55 7.73-6h-2.08A5.99 5.99 0 0 1 8 14c-3.31 0-6-2.69-6-6s2.69-6 6-6c1.66 0 3.14.69 4.22 1.78L9 7h7V0l-2.35 2.35z"/>
        <path d="M-4-4h24v24H-4z"/>
    </g>
  </symbol>

  <symbol id="external-link" viewBox="0 0 15 15">
    <g fill="currentColor" fill-rule="nonzero">
        <path d="M13.378.943l.679.679-7.195 7.195-.679-.679z"/>
        <path d="M14.2 5.6h-.96V1.76H9.4V.8h4.8zM11.8 14.24H2.2c-.816 0-1.44-.624-1.44-1.44V3.2c0-.816.624-1.44 1.44-1.44h5.28v.96H2.2c-.288 0-.48.192-.48.48v9.6c0 .288.192.48.48.48h9.6c.288 0 .48-.192.48-.48V7.52h.96v5.28c0 .816-.624 1.44-1.44 1.44z"/>
        <path fill-opacity="0" d="M-5-4h24v24H-5z"/>
    </g>
  </symbol>

  <symbol id="federated-sharing" width="20px" height="20px" viewBox="0 0 23 22" version="1.1" xmlns="http://www.w3.org/2000/svg" xmlns:xlink="http://www.w3.org/1999/xlink">
      <!-- Generator: Sketch 63.1 (92452) - https://sketch.com -->
      <title>federated-sharing_white_24px@3x</title>
      <desc>Created with Sketch.</desc>
      <g id="Icons" stroke="none" stroke-width="1" fill="none" fill-rule="evenodd">
          <g transform="translate(-359.000000, -470.000000)" id="federated-sharing_white_24px">
              <g transform="translate(358.000000, 469.000000)">
                  <polygon id="Path" points="0 0 25 0 25 24 0 24"></polygon>
                  <path d="M21.7782556,9.9360874 C20.7276018,9.9360874 19.8612732,10.6615915 19.6769479,11.6348288 L15.5296302,11.6348288 C15.4559001,11.0862769 15.2347098,10.5908106 14.9029244,10.1838205 L17.8152631,7.38797535 C18.165481,7.61801325 18.5894291,7.75957503 19.0502421,7.75957503 C20.2299237,7.75957503 21.1884149,6.83942345 21.1884149,5.70692921 C21.1884149,4.57443496 20.2114911,3.63658816 19.0318096,3.63658816 C17.8521281,3.63658816 16.8936369,4.55673974 16.8936369,5.68923398 C16.8936369,6.13161455 17.0410971,6.53860467 17.2807199,6.85711867 L14.3683812,9.67065906 C13.9444331,9.35214506 13.4098899,9.13980239 12.8569142,9.0690215 L12.8569142,5.06990119 C13.8522705,4.89294897 14.6264365,4.06127351 14.6264365,3.05264582 C14.6264365,1.92015157 13.6679453,1 12.4882638,1 C11.3085823,1 10.350091,1.92015157 10.350091,3.05264582 C10.350091,4.06127351 11.1058245,4.89294897 12.1196133,5.06990119 L12.1196133,9.05132627 C11.5482051,9.12210716 11.0136619,9.33444984 10.5712813,9.67065906 L7.67737513,6.8748139 C7.91699794,6.53860467 8.06445813,6.13161455 8.06445813,5.68923398 C8.06445813,4.55673974 7.10596691,3.63658816 5.9262854,3.63658816 C4.74660389,3.63658816 3.78811267,4.55673974 3.78811267,5.68923398 C3.78811267,6.82172823 4.74660389,7.7418798 5.9262854,7.7418798 C6.38709849,7.7418798 6.81104653,7.60031802 7.14283195,7.37028013 L10.0551707,10.2015157 C9.72338525,10.6085059 9.50219496,11.1039721 9.44689739,11.6348288 L5.28114708,11.6348288 C5.09682184,10.6792868 4.23049324,9.9360874 3.1798394,9.9360874 C2.00015789,9.9360874 1.04166667,10.856239 1.04166667,11.9887332 C1.04166667,13.1212275 2.00015789,14.041379 3.1798394,14.041379 C4.23049324,14.041379 5.09682184,13.3158749 5.28114708,12.3426377 L9.42846487,12.3426377 C9.50219496,12.8911896 9.72338525,13.3866558 10.0551707,13.7936459 L7.16126448,16.5894911 C6.81104653,16.3594532 6.38709849,16.2178914 5.9262854,16.2178914 C4.74660389,16.2178914 3.78811267,17.138043 3.78811267,18.2705372 C3.78811267,19.4030315 4.74660389,20.3231831 5.9262854,20.3231831 C7.10596691,20.3231831 8.06445813,19.4030315 8.06445813,18.2705372 C8.06445813,17.8281567 7.91699794,17.4211666 7.67737513,17.1026525 L10.5897139,14.3068074 C11.0136619,14.6253214 11.5482051,14.8376641 12.1011808,14.9084449 L12.1011808,18.88987 C11.1058245,19.0668223 10.3316585,19.8984977 10.3316585,20.9071254 C10.3316585,22.0396196 11.2901497,22.9597712 12.4698313,22.9597712 C13.6495128,22.9597712 14.608004,22.0396196 14.608004,20.9071254 C14.608004,19.8984977 13.8522705,19.0668223 12.8384817,18.88987 L12.8384817,14.9084449 C13.3914574,14.8376641 13.9075681,14.6430166 14.3315161,14.3245026 L17.2807199,17.1026525 C17.0410971,17.4388618 16.8936369,17.8458519 16.8936369,18.2705372 C16.8936369,19.4030315 17.8521281,20.3231831 19.0318096,20.3231831 C20.2114911,20.3231831 21.1699824,19.4030315 21.1699824,18.2705372 C21.1699824,17.138043 20.2114911,16.2178914 19.0318096,16.2178914 C18.5709965,16.2178914 18.1470485,16.3594532 17.7968305,16.5894911 L14.8660593,13.8113411 C15.2162773,13.3866558 15.4374675,12.8911896 15.5111976,12.3249425 L19.6585154,12.3249425 C19.8428407,13.2804845 20.7091693,14.0236838 21.7598231,14.0236838 C22.9395046,14.0236838 23.8979958,13.1035322 23.8979958,11.971038 C23.8979958,10.8385438 22.9579371,9.9360874 21.7782556,9.9360874 L21.7782556,9.9360874 Z" id="Shape" fill="currentColor" fill-rule="nonzero"></path>
                  <path d="M19.0318096,4.34439707 C19.8059756,4.34439707 20.4326814,4.94603464 20.4326814,5.68923398 C20.4326814,6.43243333 19.8059756,7.0340709 19.0318096,7.0340709 C18.2576436,7.0340709 17.6309378,6.43243333 17.6309378,5.68923398 C17.6309378,4.94603464 18.2576436,4.34439707 19.0318096,4.34439707 Z" id="Path" fill="currentColor" fill-rule="nonzero"></path>
                  <path d="M14.8107617,11.9887332 C14.8107617,12.608066 14.5342739,13.1743131 14.1103258,13.5813033 C13.6863778,13.9705982 13.1149696,14.2183313 12.4882638,14.2183313 C11.1979871,14.2183313 10.1657658,13.2097036 10.1657658,11.9887332 C10.1657658,10.7677629 11.2164197,9.75913518 12.4882638,9.75913518 C13.7601079,9.75913518 14.8107617,10.7500676 14.8107617,11.9887332 L14.8107617,11.9887332 Z" id="Path" fill="currentColor" fill-rule="nonzero"></path>
                  <path d="M11.087392,3.05264582 C11.087392,2.30944647 11.7140978,1.7078089 12.4882638,1.7078089 C13.2624298,1.7078089 13.8891356,2.30944647 13.8891356,3.05264582 C13.8891356,3.79584517 13.2624298,4.39748274 12.4882638,4.39748274 C11.7140978,4.39748274 11.087392,3.79584517 11.087392,3.05264582 Z" id="Path" fill="currentColor" fill-rule="nonzero"></path>
                  <path d="M4.52541361,5.68923398 C4.52541361,4.94603464 5.15211941,4.34439707 5.9262854,4.34439707 C6.70045139,4.34439707 7.32715719,4.94603464 7.32715719,5.68923398 C7.32715719,6.43243333 6.70045139,7.0340709 5.9262854,7.0340709 C5.15211941,7.0340709 4.52541361,6.43243333 4.52541361,5.68923398 Z" id="Path" fill="currentColor" fill-rule="nonzero"></path>
                  <path d="M3.1798394,13.3158749 C2.40567341,13.3158749 1.77896761,12.7142373 1.77896761,11.971038 C1.77896761,11.2278387 2.40567341,10.6262011 3.1798394,10.6262011 C3.95400538,10.6262011 4.58071118,11.2278387 4.58071118,11.971038 C4.58071118,12.7142373 3.95400538,13.3158749 3.1798394,13.3158749 Z" id="Path" fill="currentColor" fill-rule="nonzero"></path>
                  <path d="M5.9262854,19.6153742 C5.15211941,19.6153742 4.52541361,19.0137366 4.52541361,18.2705372 C4.52541361,17.5273379 5.15211941,16.9257003 5.9262854,16.9257003 C6.70045139,16.9257003 7.32715719,17.5273379 7.32715719,18.2705372 C7.32715719,19.0137366 6.70045139,19.6153742 5.9262854,19.6153742 Z" id="Path" fill="currentColor" fill-rule="nonzero"></path>
                  <path d="M13.870703,20.9071254 C13.870703,21.6503248 13.2439972,22.2519623 12.4698313,22.2519623 C11.6956653,22.2519623 11.0689595,21.6503248 11.0689595,20.9071254 C11.0689595,20.1639261 11.6956653,19.5622885 12.4698313,19.5622885 C13.2439972,19.5622885 13.870703,20.1639261 13.870703,20.9071254 Z" id="Path" fill="currentColor" fill-rule="nonzero"></path>
                  <path d="M20.4326814,18.2705372 C20.4326814,19.0137366 19.8059756,19.6153742 19.0318096,19.6153742 C18.2576436,19.6153742 17.6309378,19.0137366 17.6309378,18.2705372 C17.6309378,17.5273379 18.2576436,16.9257003 19.0318096,16.9257003 C19.8059756,16.9257003 20.4326814,17.5273379 20.4326814,18.2705372 Z" id="Path" fill="currentColor" fill-rule="nonzero"></path>
                  <path d="M21.7782556,13.3158749 C21.0040896,13.3158749 20.3773838,12.7142373 20.3773838,11.971038 C20.3773838,11.2278387 21.0040896,10.6262011 21.7782556,10.6262011 C22.5524216,10.6262011 23.1791274,11.2278387 23.1791274,11.971038 C23.1791274,12.7142373 22.5524216,13.3158749 21.7782556,13.3158749 Z" id="Path" fill="currentColor" fill-rule="nonzero"></path>
              </g>
          </g>
      </g>
  </symbol>

  <symbol id="safe-blocklist" width="18px" height="22px" viewBox="0 0 18 22" version="1.1" xmlns="http://www.w3.org/2000/svg" xmlns:xlink="http://www.w3.org/1999/xlink">
      <!-- Generator: Sketch 63.1 (92452) - https://sketch.com -->
      <title>safe+blocklist_white_24px@3x</title>
      <desc>Created with Sketch.</desc>
      <g id="Icons" stroke="none" stroke-width="1" fill="none" fill-rule="evenodd">
          <g transform="translate(-362.000000, -411.000000)" id="safe+blocklist_white_24px">
              <g transform="translate(358.000000, 410.000000)">
                  <polygon id="Path" points="0 0 25 0 25 24 0 24"></polygon>
                  <g id="Group-3" transform="translate(4.166667, 1.000000)" fill-rule="nonzero">
                      <path d="M15.4545352,2.84601994 L13.415404,2.84601994 L13.415404,1.96686575 C13.415404,1.68242623 13.0934549,1.55314904 12.7983134,1.55314904 L11.215324,1.55314904 C10.8397081,0.518832516 9.90061697,0.00167425496 8.82738465,0.00167425496 C7.76596414,-0.0367822451 6.80052753,0.590449704 6.4394453,1.55314904 L4.88326356,1.55314904 C4.58812211,1.55314904 4.29298065,1.68242623 4.29298065,1.96686575 L4.29298065,2.84601994 L2.25379815,2.84601994 C1.04539751,2.85844283 0.0567994521,3.77714238 0,4.94048863 L0,19.7570307 C0,20.8947888 1.07323232,21.7222222 2.25379815,21.7222222 L15.4545352,21.7222222 C16.635101,21.7222222 17.7083333,20.8947888 17.7083333,19.7570307 L17.7083333,4.94053812 C17.6515339,3.77714238 16.6629358,2.85844283 15.4545352,2.84601994 Z" id="Path" fill="currentColor"></path>
                      <path d="M5.40834742,2.60877021 L6.86512466,2.60877021 C7.11942063,2.57782388 7.32367869,2.38486444 7.36839341,2.13324856 C7.52524981,1.45192373 8.12453862,0.962850429 8.82517065,0.944444444 C9.51931346,0.96542929 10.1095782,1.45601957 10.2554334,2.13324856 C10.3029364,2.39356177 10.5206799,2.58899894 10.7851659,2.60877021 L12.2949215,2.60877021 L12.2949215,4.72222222 L5.40834742,4.72222222 L5.40834742,2.60877021 Z" id="Path" fill="currentColor"></path>
                      <path d="M15.5304015,20.7777778 L2.17793185,20.7777778 C1.58086407,20.7777778 0.983796296,20.4116384 0.983796296,19.8362479 L0.983796296,4.85011458 C1.03917077,4.25119588 1.55405991,3.78879099 2.17793185,3.77777778 L4.24050128,3.77777778 L4.24050128,5.11167846 C4.26917549,5.40473012 4.53254191,5.62394318 4.83756905,5.60862479 L12.8435965,5.60862479 C13.1542338,5.62499444 13.4258597,5.40878499 13.4677801,5.11167846 L13.4677801,3.77777778 L15.5303495,3.77777778 C16.1541695,3.78879099 16.6691106,4.25114582 16.724537,4.85006452 L16.724537,19.8362479 C16.724537,20.4116384 16.1274693,20.7777778 15.5304015,20.7777778 Z" id="Path" fill="currentColor"></path>
                      <path d="M6.41839984,12.3547886 C6.21623496,12.1471242 5.88061752,12.1354114 5.66375067,12.3285478 L3.93887514,13.9305944 L3.21120536,13.1951982 C3.00904048,12.9875339 2.67342304,12.9758713 2.45655619,13.1689574 C2.24778832,13.3821012 2.24778832,13.7174507 2.45655619,13.9305944 L3.56152476,15.0336635 C3.6571649,15.1380235 3.79531176,15.1957332 3.93882355,15.1912592 C4.08099411,15.1892986 4.21661327,15.1326446 4.31612234,15.0336635 L6.41829667,13.0901847 C6.62670344,12.903885 6.64063161,12.588191 6.44940293,12.3851515 C6.43960162,12.3745446 6.42923286,12.3644404 6.41839984,12.3547886 Z" id="Path" fill="currentColor"></path>
                      <path d="M14.8955023,12.8191186 L9.03319265,12.8191186 C8.75164685,12.8191186 8.52342448,13.1051049 8.52342448,13.457911 C8.52342448,13.8107171 8.75164685,14.0967034 9.03319265,14.0967034 L14.8955023,14.0967034 C15.1770481,14.0967034 15.4052704,13.8107171 15.4052704,13.457911 C15.4052704,13.1051049 15.1770481,12.8191186 14.8955023,12.8191186 Z" id="Path" fill="currentColor"></path>
                      <path d="M6.41839984,7.24444916 C6.21623496,7.03678482 5.88061752,7.02507197 5.66375067,7.21820835 L3.93887514,8.82025498 L3.21120536,8.08485882 C3.00904048,7.87719449 2.67342304,7.86548164 2.45655619,8.05861801 C2.24778832,8.27176175 2.24778832,8.60711124 2.45655619,8.82025498 L3.56152476,9.92332408 C3.6571649,10.0276841 3.79531176,10.0853938 3.93882355,10.0809197 C4.08099411,10.0789592 4.21661327,10.0223052 4.31612234,9.92332408 L6.41829667,7.97984532 C6.62670344,7.79354563 6.64063161,7.4778516 6.44940293,7.27481209 C6.43960162,7.26420517 6.42923286,7.25410095 6.41839984,7.24444916 Z" id="Path" fill="currentColor"></path>
                      <path d="M14.8955023,7.70877916 L9.03319265,7.70877916 C8.75164685,7.70877916 8.52342448,7.99476547 8.52342448,8.34757159 C8.52342448,8.7003777 8.75164685,8.98636401 9.03319265,8.98636401 L14.8955023,8.98636401 C15.1770481,8.98636401 15.4052704,8.7003777 15.4052704,8.34757159 C15.4052704,7.99476547 15.1770481,7.70877916 14.8955023,7.70877916 Z" id="Path" fill="currentColor"></path>
                      <path d="M6.41839984,17.4650711 C6.21623496,17.2574068 5.88061752,17.2457442 5.66375067,17.4388303 L3.93887514,19.0408769 L3.21120536,18.3054808 C3.00904048,18.0978164 2.67342304,18.0861538 2.45655619,18.27924 C2.24778832,18.4923837 2.24778832,18.8277332 2.45655619,19.0408769 L3.56152476,20.143946 C3.6571649,20.248306 3.79531176,20.3060157 3.93882355,20.3015417 C4.08099411,20.2995812 4.21661327,20.2429272 4.31612234,20.143946 L6.41829667,18.2004673 C6.62670344,18.0141676 6.64063161,17.6984735 6.44940293,17.495434 C6.43960162,17.4848774 6.42923286,17.4747732 6.41839984,17.4650711 Z" id="Path" fill="currentColor"></path>
                      <path d="M14.8955023,17.929458 L9.03319265,17.929458 C8.75164685,17.929458 8.52342448,18.2154443 8.52342448,18.5682504 C8.52342448,18.9210565 8.75164685,19.2070428 9.03319265,19.2070428 L14.8955023,19.2070428 C15.1770481,19.2070428 15.4052704,18.9210565 15.4052704,18.5682504 C15.4052704,18.2154443 15.1770481,17.929458 14.8955023,17.929458 Z" id="Path" fill="currentColor"></path>
                  </g>
              </g>
          </g>
      </g>
  </symbol>

  <symbol id="store" width="20px" height="20px" viewBox="0 0 24 24" version="1.1" xmlns="http://www.w3.org/2000/svg" xmlns:xlink="http://www.w3.org/1999/xlink">
      <!-- Generator: Sketch 63.1 (92452) - https://sketch.com -->
      <title>store_white_24px@3x</title>
      <desc>Created with Sketch.</desc>
      <g id="Icons" stroke="none" stroke-width="1" fill="none" fill-rule="evenodd">
          <g transform="translate(-359.000000, -520.000000)" id="store_white_24px">
              <g transform="translate(358.000000, 519.000000)">
                  <polygon id="Path" points="0 0 25 0 25 24 0 24"></polygon>
                  <path d="M7 18c-1.1 0-1.99.9-1.99 2S5.9 22 7 22s2-.9 2-2-.9-2-2-2zM1 2v2h2l3.6 7.59-1.35 2.45c-.16.28-.25.61-.25.96 0 1.1.9 2 2 2h12v-2H7.42c-.14 0-.25-.11-.25-.25l.03-.12L8.1 13h7.45c.75 0 1.41-.41 1.75-1.03L21.7 4H5.21l-.94-2H1zm16 16c-1.1 0-1.99.9-1.99 2s.89 2 1.99 2 2-.9 2-2-.9-2-2-2z" id="Shape" fill="currentColor" fill-rule="nonzero"></path>
              </g>
          </g>
      </g>
  </symbol>

  <symbol id="vulnerability-scan" width="24px" height="24px" viewBox="0 0 24 24" version="1.1" xmlns="http://www.w3.org/2000/svg" xmlns:xlink="http://www.w3.org/1999/xlink">
      <title>DNS Vulnerability Scanner</title>
      <desc>DNS icon with globe grid and DNS text</desc>
      <g id="Icons" stroke="none" stroke-width="1" fill="none" fill-rule="evenodd">
          <g id="dns-icon">
              <!-- Circular globe outline -->
              <circle cx="12" cy="12" r="10" stroke="currentColor" stroke-width="2" fill="none"/>
              <!-- Horizontal grid lines (latitude) - these remain straight -->
              <line x1="2" y1="8" x2="22" y2="8" stroke="currentColor" stroke-width="2" stroke-linecap="round"/>
              <line x1="2" y1="16" x2="22" y2="16" stroke="currentColor" stroke-width="2" stroke-linecap="round"/>
              <!-- Curved longitude lines (vertical arcs that follow the globe) -->
              <!-- Left longitude line - curves inward following the circle -->
              <!-- Using elliptical arc: rx=4, ry=10, x-axis-rotation=0, large-arc-flag=0, sweep-flag=0 -->
              <path d="M 6 2 A 4 10 0 0 0 6 22" stroke="currentColor" stroke-width="2" stroke-linecap="round" fill="none"/>
              <!-- Right longitude line - curves inward following the circle -->
              <!-- Using elliptical arc: rx=4, ry=10, x-axis-rotation=0, large-arc-flag=0, sweep-flag=1 -->
              <path d="M 18 2 A 4 10 0 0 1 18 22" stroke="currentColor" stroke-width="2" stroke-linecap="round" fill="none"/>
              <!-- DNS text in center -->
              <text x="12" y="14.5" font-family="Arial, Helvetica, sans-serif" font-size="6.5" font-weight="bold" text-anchor="middle" fill="currentColor">DNS</text>
          </g>
      </g>
  </symbol>

  <symbol id="ids-rules" width="24px" height="24px" viewBox="0 0 24 24" version="1.1" xmlns="http://www.w3.org/2000/svg" xmlns:xlink="http://www.w3.org/1999/xlink">
      <title>IDS/IPS Rules</title>
      <desc>Magnifying glass with traffic arrows - inspecting network traffic for IDS rules</desc>
      <g id="Icons" stroke="none" stroke-width="1" fill="none" fill-rule="evenodd">
          <g id="ids-rules-icon">
              <!-- Magnifying glass lens (circle) - arrows pass through -->
              <circle cx="12" cy="12" r="6" stroke="currentColor" stroke-width="2" fill="none"/>
              <!-- Magnifying glass handle -->
              <path d="M16.5 16.5 L21 21" stroke="currentColor" stroke-width="2" stroke-linecap="round"/>
              <!-- Upper arrow: traffic flowing right through lens -->
              <path d="M4 10 L11 10" stroke="currentColor" stroke-width="2" stroke-linecap="round"/>
              <path d="M11 8 L14 10 L11 12 Z" fill="currentColor"/>
              <!-- Lower arrow: traffic flowing left through lens -->
              <path d="M20 14 L13 14" stroke="currentColor" stroke-width="2" stroke-linecap="round"/>
              <path d="M13 12 L10 14 L13 16 Z" fill="currentColor"/>
          </g>
      </g>
  </symbol>

</svg>